<svg xmlns="http://www.w3.org/2000/svg" role="img" height="75" viewBox="0 0 51 69" class="">       <title></title>       <desc> Icon</desc>                                          <path d="M4.346 53.554a1.316 1.316 0 0 0-.49-.373 1.63 1.63 0 0 0-.673-.13 1.688 1.688 0 0 0-1.271.56 1.925 1.925 0 0 0-.373.628 2.279 2.279 0 0 0-.133.79c0 .29.044.554.133.794.09.24.214.448.369.625.157.175.34.312.551.411.211.098.438.148.681.148a1.46 1.46 0 0 0 1.267-.66l1.127.842c-.26.363-.589.633-.989.805a3.034 3.034 0 0 1-1.232.261c-.479 0-.922-.075-1.326-.225a3.04 3.04 0 0 1-1.05-.646 2.931 2.931 0 0 1-.69-1.02A3.478 3.478 0 0 1 0 55.03c0-.492.083-.937.247-1.335a2.913 2.913 0 0 1 1.74-1.666 3.763 3.763 0 0 1 1.326-.226c.174 0 .355.017.543.048.187.032.373.082.555.151.183.071.357.162.525.28.167.114.318.255.451.423l-1.041.85zm5.447.945h.798c.121 0 .25-.004.386-.013.136-.008.26-.035.37-.078a.651.651 0 0 0 .273-.203.634.634 0 0 0 .108-.392.643.643 0 0 0-.096-.372.669.669 0 0 0-.242-.213 1.11 1.11 0 0 0-.339-.099 2.65 2.65 0 0 0-.373-.026h-.885V54.5zM8.44 51.96h2.377c.312 0 .61.028.89.09.28.06.524.162.736.304a1.5 1.5 0 0 1 .502.572c.125.24.187.54.187.897 0 .434-.112.803-.337 1.107-.226.303-.556.496-.989.577l1.561 2.593h-1.622l-1.284-2.455h-.668V58.1H8.44v-6.14zm12.967 3.772c0 .365-.055.7-.165 1.007a2.207 2.207 0 0 1-.49.797 2.25 2.25 0 0 1-.81.53c-.325.127-.699.19-1.118.19a3.08 3.08 0 0 1-1.13-.19 2.242 2.242 0 0 1-.81-.53 2.21 2.21 0 0 1-.49-.797 2.963 2.963 0 0 1-.164-1.007v-3.772h1.353v3.72c0 .19.03.367.09.53a1.195 1.195 0 0 0 1.15.798 1.19 1.19 0 0 0 .884-.378c.11-.118.197-.258.255-.42.061-.163.091-.34.091-.53v-3.72h1.354v3.772zm3.469-3.773h4.172v1.25h-2.82v1.144h2.664v1.25h-2.663v1.248h2.976v1.25h-4.33v-6.142zm7.634 0h1.353v4.892h2.507v1.25h-3.86v-6.142zm7.163 1.198h-1.75v-1.197h4.855v1.197h-1.75v4.943h-1.355v-4.943zm7.47 2.324l-2.308-3.521h1.684l1.3 2.297 1.379-2.297h1.604l-2.306 3.52v2.62h-1.353v-2.62zm-35.566 6.818h4.226v1.281h-2.84v1.281h2.626v1.281h-2.625v2.455h-1.387v-6.298zm8.833 2.607h.817c.126 0 .257-.004.396-.013.14-.008.266-.036.378-.081a.652.652 0 0 0 .28-.208c.074-.095.11-.228.11-.401a.66.66 0 0 0-.096-.382.653.653 0 0 0-.25-.218 1.1 1.1 0 0 0-.346-.102 2.795 2.795 0 0 0-.382-.028h-.907v1.433zm18.214-27.602s.231 3.315-1.462 3.315h-9.474l-.007.001H13.08s-1.14-1.372-.776-3.435c.064-3.366 2.556-6.313 6.297-7.951C15.536 22.662 5.62 0 14.659 0c8.794 0 9.272 20.9 9.184 27.926a18.547 18.547 0 0 1 1.611-.072c.544 0 1.082.026 1.609.072C26.975 20.9 27.453 0 36.247 0c9.038 0-.877 22.662-3.942 29.233 3.788 1.659 6.316 4.652 6.319 8.07zM19.021 62.3h2.438c.32 0 .624.03.912.093.287.063.539.166.756.312.216.145.388.34.516.586.128.247.19.553.19.92 0 .446-.115.824-.346 1.135-.231.312-.57.509-1.014.592l1.6 2.659H22.41l-1.315-2.517h-.685v2.517h-1.39v-6.297zm8.041 0h4.278v1.28h-2.89v1.174h2.731v1.281H28.45v1.281h3.052v1.281h-4.439v-6.298zm7.828 0h4.278v1.28h-2.89v1.174h2.731v1.281h-2.732v1.281h3.052v1.281H34.89v-6.298z" class="fill"></path>                   </svg>