<svg width="55" height="55" viewBox="0 0 55 55" fill="currentColor" xmlns="http://www.w3.org/2000/svg"> <path d="M43.6133 21.1629V16.1133C43.6133 7.22832 36.385 0 27.5 0C18.615 0 11.3867 7.22832 11.3867 16.1133V21.1629C8.93784 21.6619 7.08984 23.8321 7.08984 26.4258V32.5241C7.08984 33.1174 7.57072 33.5983 8.16406 33.5983C8.7574 33.5983 9.23828 33.1174 9.23828 32.5241V26.4258C9.23828 24.6487 10.6839 23.2031 12.4609 23.2031H42.5391C44.3161 23.2031 45.7617 24.6487 45.7617 26.4258V49.6289C45.7617 51.0292 44.8637 52.2234 43.6133 52.6669V46.1914C43.6133 45.5981 43.1324 45.1172 42.5391 45.1172C41.9457 45.1172 41.4648 45.5981 41.4648 46.1914V52.8516H12.4609C10.6839 52.8516 9.23828 51.406 9.23828 49.6289V41.1426C9.23828 40.5492 8.7574 40.0684 8.16406 40.0684C7.57072 40.0684 7.08984 40.5492 7.08984 41.1426V49.6289C7.08984 52.5906 9.49928 55 12.4609 55H42.5391C45.5007 55 47.9102 52.5906 47.9102 49.6289V26.4258C47.9102 23.8321 46.0622 21.6619 43.6133 21.1629ZM19.3359 21.0547V16.1133C19.3359 11.6116 22.9984 7.94922 27.5 7.94922C32.0016 7.94922 35.6641 11.6116 35.6641 16.1133V21.0547H19.3359ZM37.8125 21.0547V16.1133C37.8125 10.4271 33.1862 5.80078 27.5 5.80078C21.8138 5.80078 17.1875 10.4271 17.1875 16.1133V21.0547H13.5352V16.1133C13.5352 8.4129 19.7996 2.14844 27.5 2.14844C35.2004 2.14844 41.4648 8.4129 41.4648 16.1133V21.0547H37.8125Z"></path> <path d="M8.16406 37.8647C8.44646 37.8647 8.72383 37.7502 8.92357 37.55C9.12331 37.3503 9.23828 37.0733 9.23828 36.7905C9.23828 36.5081 9.12331 36.2308 8.92357 36.0314C8.72383 35.8313 8.44646 35.7163 8.16406 35.7163C7.88166 35.7163 7.60429 35.8313 7.40456 36.0314C7.20482 36.2308 7.08984 36.5081 7.08984 36.7905C7.08984 37.0733 7.20482 37.3503 7.40456 37.55C7.60429 37.7502 7.88166 37.8647 8.16406 37.8647Z"></path> <path d="M27.5 49.1992C29.277 49.1992 30.7226 47.7536 30.7226 45.9765V40.2722C32.3365 39.2039 33.3146 37.4079 33.3146 35.4399C33.3146 32.2416 30.7121 29.6392 27.5138 29.6392C24.3151 29.6392 21.713 32.2416 21.713 35.4399C21.713 37.3937 22.6802 39.1829 24.2773 40.2538V45.9765C24.2773 47.7536 25.7229 49.1992 27.5 49.1992ZM23.8615 35.4399C23.8615 33.4258 25.4996 31.7876 27.5138 31.7876C29.5275 31.7876 31.1661 33.4258 31.1661 35.4399C31.1661 36.823 30.3982 38.0714 29.1625 38.6987C28.8016 38.8816 28.5742 39.2517 28.5742 39.6567V45.9765C28.5742 46.569 28.0924 47.0507 27.5 47.0507C26.9075 47.0507 26.4257 46.569 26.4257 45.9765V39.6424C26.4257 39.2404 26.2012 38.872 25.8437 38.6878C24.621 38.0575 23.8615 36.8129 23.8615 35.4399Z"></path> <path d="M42.5391 42.8613C42.8227 42.8613 43.0988 42.7464 43.2986 42.5466C43.4983 42.3469 43.6133 42.0708 43.6133 41.7871C43.6133 41.5034 43.4983 41.2273 43.2986 41.0276C43.0988 40.8279 42.8227 40.7129 42.5391 40.7129C42.2567 40.7129 41.9793 40.8279 41.7796 41.0276C41.5798 41.2273 41.4648 41.5047 41.4648 41.7871C41.4648 42.0695 41.5798 42.3469 41.7796 42.5466C41.9793 42.7464 42.2567 42.8613 42.5391 42.8613Z"></path> </svg>