<svg xmlns="http://www.w3.org/2000/svg" role="img" height="75" viewBox="0 0 256 241" class="">       <title></title>       <desc> Icon</desc>                                          <g class="fill">         <path d="M.5 179.7h8.7c1.1 0 2.2.1 3.2.3 1 .2 1.9.6 2.7 1.1.8.5 1.4 1.2 1.8 2.1.5.9.7 2 .7 3.3 0 1.6-.4 2.9-1.2 4-.8 1.1-2 1.8-3.6 2.1l5.7 9.5h-5.9l-4.7-9H5.5v9H.6v-22.4H.5zm4.9 9.3h4.3c.5 0 .9-.1 1.3-.3.4-.2.7-.4 1-.7.3-.3.4-.8.4-1.4 0-.6-.1-1-.3-1.4-.2-.3-.5-.6-.9-.8-.4-.2-.8-.3-1.2-.4-.5-.1-.9-.1-1.4-.1H5.4v5.1zM27.5 179.7h15.2v4.6H32.4v4.2h9.7v4.6h-9.7v4.6h10.8v4.6H27.4v-22.6zm40.7 5.9c-.5-.6-1.1-1-1.8-1.4-.7-.3-1.5-.5-2.5-.5s-1.8.2-2.6.5c-.8.4-1.5.9-2.1 1.5-.6.6-1 1.4-1.4 2.3-.3.9-.5 1.8-.5 2.9 0 1.1.2 2 .5 2.9.3.9.8 1.6 1.3 2.3.6.6 1.2 1.1 2 1.5.8.4 1.6.5 2.5.5 1 0 1.9-.2 2.7-.6.8-.4 1.4-1 1.9-1.8l4.1 3.1c-.9 1.3-2.2 2.3-3.6 2.9-1.5.6-3 .9-4.5.9-1.8 0-3.4-.3-4.8-.8s-2.8-1.3-3.8-2.4c-1.1-1-1.9-2.3-2.5-3.7-.6-1.5-.9-3.1-.9-4.9 0-1.8.3-3.4.9-4.9.6-1.5 1.4-2.7 2.5-3.7s2.3-1.8 3.8-2.4c1.5-.5 3.1-.8 4.8-.8.6 0 1.3.1 2 .2s1.4.3 2 .6c.7.3 1.3.6 1.9 1 .6.4 1.2.9 1.6 1.5l-3.5 3.3zm18.9 7l-8.4-12.8h6.1l4.7 8.4 5-8.4h5.9L92 192.6v9.6h-4.9v-9.6zm35.9-7c-.5-.6-1.1-1-1.8-1.4-.7-.3-1.5-.5-2.5-.5s-1.8.2-2.6.5c-.8.4-1.5.9-2.1 1.5-.6.6-1 1.4-1.4 2.3-.3.9-.5 1.8-.5 2.9 0 1.1.2 2 .5 2.9.3.9.8 1.6 1.3 2.3.6.6 1.2 1.1 2 1.5.8.4 1.6.5 2.5.5 1 0 1.9-.2 2.7-.6.8-.4 1.4-1 1.9-1.8l4.1 3.1c-.9 1.3-2.2 2.3-3.6 2.9-1.5.6-3 .9-4.5.9-1.8 0-3.4-.3-4.8-.8s-2.8-1.3-3.8-2.4c-1.1-1-1.9-2.3-2.5-3.7-.6-1.5-.9-3.1-.9-4.9 0-1.8.3-3.4.9-4.9.6-1.5 1.4-2.7 2.5-3.7s2.3-1.8 3.8-2.4c1.5-.5 3.1-.8 4.8-.8.6 0 1.3.1 2 .2s1.4.3 2 .6c.7.3 1.3.6 1.9 1 .6.4 1.2.9 1.6 1.5l-3.5 3.3zm13.5-5.9h4.9v17.8h9.1v4.6h-14.1v-22.4zM167 179.7h4.1l9.7 22.4h-5.6l-1.9-4.7h-8.7l-1.9 4.7h-5.4l9.7-22.4zm1.9 6.5l-2.7 7h5.5l-2.8-7zm20.5-6.5h8.3c1 0 1.9.1 2.9.2s1.9.4 2.6.8c.8.4 1.4 1 1.9 1.7s.7 1.7.7 2.9c0 1.3-.4 2.3-1.1 3.1-.7.8-1.6 1.4-2.8 1.8v.1c.7.1 1.4.3 2 .6.6.3 1.1.7 1.5 1.2.4.5.8 1 1 1.7.2.6.3 1.3.3 2 0 1.2-.3 2.2-.8 3-.5.8-1.2 1.4-2 1.9s-1.7.8-2.7 1c-1 .2-2 .3-3 .3H189v-22.3h.4zm4.9 9h3.6c.4 0 .8 0 1.1-.1.4-.1.7-.2 1-.4.3-.2.5-.4.7-.8.2-.3.3-.7.3-1.1 0-.5-.1-.8-.3-1.2-.2-.3-.5-.5-.8-.7-.3-.2-.7-.3-1.1-.4-.4-.1-.8-.1-1.2-.1h-3.4v4.8h.1zm0 9.2h4.4c.4 0 .8 0 1.2-.1.4-.1.7-.2 1.1-.4.3-.2.6-.5.8-.8.2-.3.3-.7.3-1.2s-.1-1-.4-1.3c-.3-.3-.6-.6-1-.7-.4-.2-.8-.3-1.3-.4-.5-.1-.9-.1-1.3-.1h-3.7v5h-.1zM216.4 179.7h4.9v17.8h9.1v4.6h-14.1v-22.4zm23.3 0h15.2v4.6h-10.3v4.2h9.7v4.6h-9.7v4.6h10.8v4.6h-15.8v-22.6zM5.9 218.1h8.3c1.2 0 2.3.1 3.3.3 1 .2 1.9.6 2.7 1.1.8.5 1.4 1.2 1.8 2.1.5.9.7 2 .7 3.3 0 1.3-.2 2.4-.6 3.3-.4.9-1 1.6-1.7 2.1s-1.6.9-2.6 1.1c-1 .2-2.1.3-3.3.3h-3.6v8.7H6v-22.3h-.1zm4.9 9.5h3.3c.4 0 .9 0 1.3-.1s.8-.2 1.1-.4c.3-.2.6-.5.8-.8.2-.3.3-.8.3-1.3 0-.6-.1-1-.4-1.4-.3-.3-.6-.6-1-.8-.4-.2-.9-.3-1.4-.4-.5-.1-1-.1-1.5-.1h-2.5v5.3zm26.4-9.5h4.1l9.8 22.4h-5.6l-1.9-4.7h-8.7l-1.9 4.7h-5.4l9.6-22.4zm1.9 6.5l-2.7 7h5.5l-2.8-7zM74.3 223.9c-.5-.6-1.1-1-1.8-1.4-.7-.3-1.5-.5-2.5-.5-.9 0-1.8.2-2.6.5-.8.4-1.5.9-2.1 1.5-.6.6-1 1.4-1.4 2.3-.3.9-.5 1.8-.5 2.9 0 1.1.2 2 .5 2.9.3.9.8 1.6 1.3 2.3.6.6 1.2 1.1 2 1.5.8.4 1.6.5 2.5.5 1 0 1.9-.2 2.7-.6.8-.4 1.4-1 1.9-1.8l4.1 3.1c-1 1.3-2.2 2.3-3.6 2.9-1.5.6-3 .9-4.5.9-1.8 0-3.4-.3-4.8-.8-1.5-.5-2.8-1.3-3.8-2.4-1.1-1-1.9-2.3-2.5-3.7-.6-1.5-.9-3.1-.9-4.9 0-1.8.3-3.4.9-4.9.6-1.5 1.4-2.7 2.5-3.7s2.4-1.8 3.8-2.4c1.5-.5 3.1-.8 4.8-.8.6 0 1.3.1 2 .2s1.4.3 2 .6c.7.3 1.3.6 1.9 1 .6.4 1.2.9 1.6 1.6l-3.5 3.2zm13.5-5.8h4.9v9.3l8.7-9.3h6.5l-10 10.4 10.8 12h-6.9l-9.1-10.6v10.6h-4.9zM124.2 218.1h4.1l9.8 22.4h-5.6l-1.9-4.7h-8.7l-1.9 4.7h-5.4l9.6-22.4zm1.9 6.5l-2.7 7h5.5l-2.8-7zM166.9 238.9c-1.5.8-3 1.3-4.6 1.6-1.6.3-3.2.5-4.8.5-1.8 0-3.4-.3-4.8-.8-1.5-.5-2.8-1.3-3.8-2.4-1.1-1-1.9-2.3-2.5-3.7-.6-1.5-.9-3.1-.9-4.9 0-1.8.3-3.4.9-4.9.6-1.5 1.4-2.7 2.5-3.7s2.4-1.8 3.8-2.4c1.5-.5 3.1-.8 4.8-.8 1.8 0 3.4.2 5 .6 1.5.4 2.8 1.2 4 2.2L163 224c-.7-.7-1.4-1.2-2.3-1.6-.8-.4-1.9-.5-3.2-.5-1.1 0-2 .2-2.9.5-.9.4-1.6.9-2.2 1.5-.6.6-1.1 1.4-1.4 2.3-.3.9-.5 1.8-.5 2.9 0 1.1.2 2 .5 2.9.3.9.8 1.6 1.4 2.3.6.6 1.3 1.1 2.2 1.5.9.4 1.8.5 2.9.5 1.1 0 2-.1 2.8-.4.8-.2 1.4-.5 1.9-.7v-3.6h-4V227h8.8v11.9h-.1zm10.6-20.8h4.9v22.4h-4.9zm15.8 0h6.7l9.5 15.6h.1v-15.6h4.9v22.4H208l-9.8-16h-.1v16h-4.9v-22.4zm52.4 20.8c-1.5.8-3 1.3-4.6 1.6-1.6.3-3.2.5-4.8.5-1.8 0-3.4-.3-4.8-.8-1.5-.5-2.8-1.3-3.8-2.4-1.1-1-1.9-2.3-2.5-3.7-.6-1.5-.9-3.1-.9-4.9 0-1.8.3-3.4.9-4.9.6-1.5 1.4-2.7 2.5-3.7s2.4-1.8 3.8-2.4c1.5-.5 3.1-.8 4.8-.8 1.8 0 3.4.2 5 .6 1.5.4 2.8 1.2 4 2.2l-3.5 3.8c-.7-.7-1.4-1.2-2.3-1.6-.8-.4-1.9-.5-3.2-.5-1.1 0-2 .2-2.9.5-.9.4-1.6.9-2.2 1.5-.6.6-1.1 1.4-1.4 2.3-.3.9-.5 1.8-.5 2.9 0 1.1.2 2 .5 2.9.3.9.8 1.6 1.4 2.3.6.6 1.3 1.1 2.2 1.5.9.4 1.8.5 2.9.5 1.1 0 2-.1 2.8-.4.8-.2 1.4-.5 1.9-.7v-3.6h-4V227h8.8v11.9h-.1z"></path><g><path d="M73.8 34.8s12.7-21 13.8-23.1c1.1-2 3.2-6.1 9-8.2 3.8-1.4 6.1-1.4 10.3-.5 4.2.8 5.4 1.8 7.7 3.9 1.9 2.3 7.9 13.2 7.9 13.2l-18.9 32-29.8-17.3z"></path><path d="M112.1 1.2S149.9.9 152 .9c2 0 2.9.5 4.1 2 1.2 1.5 11.1 18.6 11.1 18.6l10.4-5.7-16.8 28.7-33.9.2 10.4-6S118.8 6.8 117.9 5.4c-2.1-2.7-5.8-4.2-5.8-4.2zm7.2 128.8s-24.5-.4-26.9-.2c-2.3.1-7 .4-11.7-3.5-3.1-2.6-4.3-4.6-5.7-8.6-1.5-4-1.1-5.6-.5-8.5 1.1-2.7 7.4-13.4 7.4-13.4H119l.3 34.2z"></path><path d="M71 114S51.5 81.5 50.5 79.7c-1.1-1.8-1.1-2.8-.4-4.6.8-1.8 10.4-19.1 10.4-19.1l-10.2-6 33.2-.2L100.9 79l-10.5-5.9s-18.1 32.1-18.8 33.6c-1.2 3.3-.6 7.3-.6 7.3zM180.2 42.9s11.7 21.7 12.9 23.6c1.2 1.9 3.8 5.9 2.7 11.8-.7 3.9-1.9 6-4.7 9.3-2.9 3.2-4.4 3.7-7.3 4.6-2.9.4-15.3.2-15.3.2L150.3 60l29.9-17.1z"></path><path d="M189.9 92.9s-18.8 32.8-19.8 34.6c-1 1.8-1.8 2.3-3.8 2.5-1.9.2-21.7.2-21.7.2l-.2 11.8-16.4-29 17-29.4v12s36.9.1 38.5 0c3.2-.3 6.4-2.7 6.4-2.7z"></path></g>       </g>                         </svg>