<svg width="55" height="55" viewBox="0 0 55 55" fill="currentColor" xmlns="http://www.w3.org/2000/svg"> <g clip-path="url(#clip0)"> <path d="M52.4925 34.3399L54.066 32.7667C55.0563 31.776 55.0563 30.1643 54.066 29.1735C53.586 28.6939 52.9482 28.4296 52.2692 28.4296C51.7598 28.4296 51.2731 28.5785 50.8593 28.8559L50.5278 27.7431L52.231 26.0394C53.2218 25.0487 53.2218 23.4369 52.231 22.4467C51.3192 21.5344 49.8816 21.4643 48.8858 22.2318L46.8675 15.4558C47.6736 14.6795 48.4457 13.9242 49.1733 13.1966C51.2701 11.0994 52.975 8.88001 53.9741 6.94641C55.6623 3.67843 54.9556 1.93157 54.0656 1.04156C53.176 0.151552 51.4291 -0.554663 48.1608 1.13346C46.2276 2.13215 44.0078 3.83705 41.911 5.9343C41.1834 6.66191 40.4276 7.43359 39.6518 8.23967L32.8754 6.22131C33.6428 5.22598 33.5728 3.78837 32.6609 2.87613C31.6702 1.88583 30.0585 1.88541 29.0682 2.87613L27.3645 4.57977L26.2513 4.24827C26.5286 3.83411 26.6776 3.34736 26.6776 2.83794C26.6776 2.15942 26.4132 1.52118 25.9336 1.04156C24.9433 0.0508439 23.3312 0.0508439 22.3409 1.04156L20.7677 2.61471L12.7492 0.226244C12.4635 0.141481 12.1546 0.21953 11.9444 0.430178L9.88032 2.49427C9.53372 2.84046 9.57946 3.43254 9.97474 3.72166L30.2062 18.5304C25.6445 23.6736 21.2503 28.8232 18.148 32.5024L12.197 30.2133C11.8978 30.0984 11.5592 30.1701 11.3326 30.3967L8.88625 32.8431C8.56986 33.1599 8.56986 33.6731 8.88625 33.9895L21.1177 46.2209C21.4299 46.5335 21.9519 46.5335 22.2645 46.2209L24.7104 43.775C24.937 43.5484 25.0092 43.2093 24.8938 42.9101L22.6052 36.9595C26.2844 33.8573 31.4335 29.4631 36.5772 24.901L38.1844 27.0973C38.4697 27.4871 39.0483 27.5374 39.3983 27.2051C39.6899 26.9282 39.7302 26.4636 39.4931 26.1397L37.7941 23.8184C40.4839 21.4178 43.14 18.9957 45.5499 16.7134L53.189 42.3583L52.1354 43.4116L41.6361 29.0674C41.3718 28.7061 40.8644 28.6276 40.5032 28.892C40.1414 29.1568 40.063 29.6641 40.3278 30.0254L51.3859 45.1328C51.675 45.5281 52.2671 45.5739 52.6133 45.2273L54.6774 43.1632C54.8881 42.9529 54.9661 42.6437 54.8813 42.3583L52.4925 34.3399ZM30.215 4.02294C30.5691 3.66878 31.1604 3.66878 31.5145 4.02294C31.8729 4.38129 31.8729 4.96414 31.5145 5.32249L31.1344 5.70267L29.1315 5.10597L30.215 4.02294ZM23.4877 2.18837C23.8456 1.83002 24.4289 1.83002 24.7872 2.18837C25.1456 2.54673 25.1456 3.12958 24.7872 3.48793L24.5371 3.7376L22.5347 3.14132L23.4877 2.18837ZM11.6956 2.9718L12.7492 1.91856L38.3942 9.55727C36.1119 11.9676 33.6898 14.6237 31.2888 17.3135L11.6956 2.9718ZM12.1068 31.9162L17.0436 33.8149C15.8053 35.2895 14.8557 36.4304 14.2955 37.1056L10.6063 33.4163L12.1068 31.9162ZM15.4474 38.2574C18.2739 34.8472 33.2144 16.9241 43.0578 7.08069C45.0107 5.12737 47.1423 3.48499 48.9052 2.57442C50.2286 1.89045 51.9994 1.26857 52.9192 2.18837C53.839 3.10817 53.2167 4.87896 52.5332 6.20243C51.6226 7.96524 49.9798 10.0965 48.0265 12.0498C38.1839 21.8923 20.2604 36.8332 16.8502 39.6602L15.4474 38.2574ZM23.1914 43.0008L21.6913 44.5009L18.002 40.8116C18.6768 40.2519 19.8181 39.3023 21.2927 38.064L23.1914 43.0008ZM51.6197 30.3204C51.978 29.962 52.5609 29.962 52.9192 30.3204C53.2776 30.6787 53.2776 31.2616 52.9192 31.6199L51.9663 32.5729L51.3696 30.5704L51.6197 30.3204ZM49.7851 23.593C50.143 23.2347 50.7263 23.2351 51.0846 23.593C51.4388 23.9472 51.4388 24.5384 51.0846 24.8926L50.0012 25.9761L49.4045 23.9732L49.7851 23.593Z"></path> <path d="M48.671 46.8042L41.7519 53.7232C41.4569 54.0187 41.4372 54.5062 41.7087 54.8235C42.0121 55.1776 42.5689 55.1999 42.8987 54.8701L49.8178 47.951C50.1346 47.6342 50.1346 47.121 49.8178 46.8042C49.5014 46.4878 48.9878 46.4878 48.671 46.8042Z"></path> <path d="M46.3581 44.4914C46.6749 44.175 46.6749 43.6614 46.3581 43.345C46.0417 43.0282 45.5281 43.0282 45.2117 43.345L40.8871 47.6692C40.5921 47.9646 40.5724 48.4522 40.8439 48.7694C41.1473 49.1236 41.7041 49.1458 42.0339 48.816L46.3581 44.4914Z"></path> <path d="M43.7636 40.1671C44.0804 39.8503 44.0804 39.3367 43.7636 39.0203C43.4467 38.7035 42.9335 38.7035 42.6167 39.0203L39.5896 42.0474C39.2946 42.3424 39.2749 42.8305 39.5468 43.1477C39.8498 43.5018 40.4066 43.5241 40.7364 43.1943L43.7636 40.1671Z"></path> <path d="M8.3034 5.72167C7.98659 5.40528 7.47298 5.40528 7.15659 5.72167L0.237517 12.6412C-0.0792943 12.9576 -0.0792943 13.4712 0.237517 13.7876C0.549712 14.0998 1.07172 14.0998 1.38433 13.7876L8.3034 6.86848C8.61979 6.55167 8.61979 6.03848 8.3034 5.72167Z"></path> <path d="M11.7627 9.18146C11.4459 8.86464 10.9327 8.86464 10.6163 9.18146L6.29173 13.506C5.99632 13.801 5.97702 14.2886 6.24851 14.6058C6.55189 14.96 7.1083 14.9822 7.43812 14.6524L11.7627 10.3283C12.0795 10.0115 12.0795 9.49785 11.7627 9.18146Z"></path> <path d="M11.9134 15.9503C12.226 16.2625 12.7476 16.2625 13.0602 15.9503L16.0873 12.9232C16.4037 12.6064 16.4037 12.0932 16.0873 11.7764C15.7705 11.46 15.2573 11.46 14.9405 11.7764L11.9134 14.8035C11.597 15.1203 11.597 15.6335 11.9134 15.9503Z"></path> </g> <defs> <clipPath> <rect width="55" height="55"></rect> </clipPath> </defs> </svg>