<svg width="55" height="55" viewBox="0 0 55 55" fill="currentColor" xmlns="http://www.w3.org/2000/svg"> <g clip-path="url(#clip0)"> <path d="M26.3445 5.66147V3.35059C12.9412 3.35059 2.07983 14.5586 2.07983 28.3086C2.07983 36.5123 5.89282 44.254 12.4789 48.8757L13.8656 46.9115C7.97276 42.7519 4.39072 35.7035 4.39072 28.3086C4.39072 15.8295 14.2122 5.66147 26.3445 5.66147Z"></path> <path d="M23.5714 0L22.1848 1.84876L25.4201 4.39071L23.1092 7.62598L24.9579 9.0126L28.5399 3.81299L23.5714 0Z"></path> <path d="M39.4013 4.7373L38.3613 6.81713C45.8718 10.6301 50.6092 18.4873 50.6092 27.1532C50.6092 39.6323 40.7878 49.8003 28.6554 49.8003V52.1112C42.0587 52.1112 52.9201 40.9032 52.9201 27.1532C52.9202 17.5629 47.7206 9.01254 39.4013 4.7373Z"></path> <path d="M29.3487 50.7247L31.5441 47.3738L29.6953 45.9873L26.1134 51.1868L31.1974 54.9999L32.584 53.1512L29.3487 50.7247Z"></path> <path d="M33.5085 26.1135C32.4685 25.1891 30.8509 24.4958 28.7711 24.0337H28.6555V18.8341C30.042 19.0651 31.313 19.5274 32.5841 20.4518L34.4328 17.9097C32.5841 16.6387 30.7353 15.9455 28.6555 15.8299V14.4434H26.9223V15.8299C25.0736 15.8299 23.6871 16.4076 22.5316 17.4476C21.3762 18.4875 20.7985 19.7584 20.7985 21.3761C20.7985 22.9938 21.3762 24.1493 22.3006 24.9581C23.3405 25.7669 24.8425 26.4602 26.9223 26.9224V32.3531C25.1892 32.122 23.5715 31.3132 22.0694 29.9266L19.9896 32.3531C21.9538 34.0863 24.2648 35.1262 26.8067 35.3573V37.3215H28.7711V35.3572C30.6198 35.3572 32.1219 34.7795 33.2774 33.7395C34.4328 32.6995 35.0105 31.4286 35.0105 29.8109C35.0105 28.1933 34.5483 26.9223 33.5085 26.1135ZM26.8067 23.687C25.7668 23.3404 25.0736 22.9937 24.7269 22.6472C24.3803 22.3006 24.1492 21.7228 24.1492 21.1451C24.1492 20.5674 24.3803 20.1052 24.8425 19.643C25.3048 19.1807 25.8825 18.9497 26.8067 18.8341V23.687ZM30.6197 31.7753C30.1576 32.1219 29.4643 32.4685 28.5399 32.584V27.6156C29.6954 27.9623 30.5041 28.3089 30.8508 28.6555C31.1974 29.0021 31.4285 29.4643 31.4285 30.1576C31.4285 30.8509 31.0819 31.3131 30.6197 31.7753Z"></path> </g> <defs> <clipPath> <rect width="55" height="55"></rect> </clipPath> </defs> </svg>